<svg xmlns="http://www.w3.org/2000/svg" width="19" height="23" fill="none"><path fill="#295091" d="M16.757 20.016c-.909 1.328-1.848 2.647-3.331 2.675-1.46.028-1.928-.865-3.595-.865-1.668 0-2.189.837-3.567.893-1.432.053-2.522-1.434-3.438-2.757C.955 17.261-.473 12.322 1.447 8.99 2.4 7.333 4.103 6.286 5.95 6.259c1.406-.027 2.735.947 3.594.947.86 0 2.473-1.169 4.168-.997.71.029 2.702.286 3.981 2.156-.101.067-2.377 1.39-2.35 4.148.028 3.295 2.888 4.39 2.922 4.404-.026.078-.457 1.564-1.508 3.099ZM10.528 2.59c.785-.92 2.112-1.604 3.207-1.65.14 1.278-.374 2.557-1.133 3.478-.762.92-2.007 1.637-3.23 1.542-.166-1.25.45-2.554 1.156-3.37Z"/></svg>