<svg xmlns="http://www.w3.org/2000/svg" width="300" height="21" fill="none"><path fill="#295091" d="M1.66 20a.745.745 0 0 1-.504-.196.745.745 0 0 1-.196-.504V1.1c0-.205.065-.373.196-.504A.746.746 0 0 1 1.66.4h2.968c.467 0 .784.177.952.532l6.832 10.752V1.1c0-.205.065-.373.196-.504A.745.745 0 0 1 13.112.4h3.36c.205 0 .373.065.504.196.13.13.196.299.196.504v18.172a.781.781 0 0 1-.196.532.682.682 0 0 1-.504.196h-2.996c-.41 0-.719-.177-.924-.532L5.72 9.108V19.3a.745.745 0 0 1-.196.504.682.682 0 0 1-.504.196H1.66Zm18.305 0a.635.635 0 0 1-.42-.168.635.635 0 0 1-.168-.42c0-.112.01-.196.028-.252l6.58-17.976c.056-.224.177-.41.364-.56.187-.15.43-.224.728-.224h4.144c.299 0 .541.075.728.224.187.15.308.336.364.56l6.552 17.976.056.252c0 .15-.065.29-.196.42a.57.57 0 0 1-.42.168h-3.444c-.448 0-.747-.196-.896-.588l-1.092-2.856h-7.476l-1.064 2.856c-.15.392-.457.588-.924.588h-3.444Zm11.788-7.476-2.604-7.392-2.604 7.392h5.208ZM41.828 20a.745.745 0 0 1-.504-.196.745.745 0 0 1-.196-.504V1.1c0-.205.065-.373.196-.504A.745.745 0 0 1 41.828.4h3.024c.448 0 .775.205.98.616l4.928 8.82 4.928-8.82c.205-.41.532-.616.98-.616h2.996c.205 0 .373.065.504.196a.64.64 0 0 1 .224.504v18.2a.64.64 0 0 1-.224.504.682.682 0 0 1-.504.196h-3.332a.78.78 0 0 1-.532-.196.682.682 0 0 1-.196-.504V8.8l-3.136 5.852c-.243.43-.57.644-.98.644h-1.456c-.243 0-.439-.056-.588-.168-.15-.112-.28-.27-.392-.476L45.888 8.8v10.5a.746.746 0 0 1-.196.504.682.682 0 0 1-.504.196h-3.36Zm21.367 0a.635.635 0 0 1-.42-.168.635.635 0 0 1-.167-.42c0-.112.009-.196.028-.252l6.58-17.976c.056-.224.177-.41.364-.56.186-.15.429-.224.728-.224h4.143c.3 0 .542.075.729.224.186.15.307.336.363.56l6.552 17.976.056.252c0 .15-.065.29-.195.42a.57.57 0 0 1-.42.168H78.09c-.447 0-.746-.196-.895-.588l-1.093-2.856h-7.475l-1.064 2.856c-.15.392-.458.588-.924.588h-3.444Zm11.789-7.476-2.605-7.392-2.604 7.392h5.209ZM85.058 20a.746.746 0 0 1-.504-.196.746.746 0 0 1-.196-.504V1.1c0-.205.066-.373.196-.504A.746.746 0 0 1 85.058.4h2.968c.467 0 .784.177.952.532l6.832 10.752V1.1c0-.205.066-.373.196-.504A.746.746 0 0 1 96.51.4h3.36a.68.68 0 0 1 .504.196.68.68 0 0 1 .196.504v18.172a.78.78 0 0 1-.196.532.68.68 0 0 1-.504.196h-2.996c-.41 0-.718-.177-.924-.532l-6.832-10.36V19.3a.745.745 0 0 1-.196.504.682.682 0 0 1-.504.196h-3.36Zm27.517.28c-2.688 0-4.788-.653-6.3-1.96-1.512-1.325-2.314-3.201-2.408-5.628-.018-.541-.028-1.4-.028-2.576 0-1.176.01-2.035.028-2.576.094-2.37.906-4.2 2.436-5.488 1.55-1.288 3.64-1.932 6.272-1.932 1.774 0 3.314.29 4.62.868 1.326.579 2.334 1.316 3.024 2.212.71.896 1.083 1.82 1.12 2.772a.53.53 0 0 1-.196.42.57.57 0 0 1-.42.168h-4.088a1.01 1.01 0 0 1-.448-.084.654.654 0 0 1-.28-.308c-.242-.541-.625-1.008-1.148-1.4-.522-.41-1.25-.616-2.184-.616-2.221 0-3.388 1.176-3.5 3.528a77.717 77.717 0 0 0-.028 2.436c0 1.083.01 1.895.028 2.436.112 2.464 1.307 3.696 3.584 3.696 1.102 0 1.979-.28 2.632-.84.672-.579 1.008-1.456 1.008-2.632v-.532h-2.632a.683.683 0 0 1-.504-.196.784.784 0 0 1-.196-.532V9.444c0-.205.066-.373.196-.504a.64.64 0 0 1 .504-.224h7.056c.206 0 .374.075.504.224a.68.68 0 0 1 .196.504v3.192c0 1.587-.364 2.959-1.092 4.116-.728 1.139-1.764 2.016-3.108 2.632-1.325.597-2.874.896-4.648.896Zm10.503-.28a.636.636 0 0 1-.42-.168.635.635 0 0 1-.168-.42c0-.112.01-.196.028-.252l6.58-17.976c.056-.224.178-.41.364-.56.187-.15.43-.224.728-.224h4.144c.299 0 .542.075.728.224.187.15.308.336.364.56l6.552 17.976.056.252c0 .15-.065.29-.196.42a.57.57 0 0 1-.42.168h-3.444c-.448 0-.746-.196-.896-.588l-1.092-2.856h-7.476l-1.064 2.856c-.149.392-.457.588-.924.588h-3.444Zm11.788-7.476-2.604-7.392-2.604 7.392h5.208ZM144.941 20a.748.748 0 0 1-.504-.196.749.749 0 0 1-.196-.504V1.1c0-.205.066-.373.196-.504a.748.748 0 0 1 .504-.196h2.968c.467 0 .784.177.952.532l6.832 10.752V1.1c0-.205.066-.373.196-.504a.748.748 0 0 1 .504-.196h3.36a.68.68 0 0 1 .504.196.68.68 0 0 1 .196.504v18.172a.78.78 0 0 1-.196.532.68.68 0 0 1-.504.196h-2.996c-.41 0-.718-.177-.924-.532l-6.832-10.36V19.3a.744.744 0 0 1-.196.504.68.68 0 0 1-.504.196h-3.36Zm20.125 0a.748.748 0 0 1-.504-.196.749.749 0 0 1-.196-.504V1.1c0-.205.066-.373.196-.504a.748.748 0 0 1 .504-.196h3.696a.68.68 0 0 1 .504.196.68.68 0 0 1 .196.504v14.672h8.484c.206 0 .374.075.504.224.131.13.196.299.196.504v2.8a.744.744 0 0 1-.196.504.68.68 0 0 1-.504.196h-12.88Zm16.707 0a.748.748 0 0 1-.504-.196.749.749 0 0 1-.196-.504V1.1c0-.205.066-.373.196-.504a.748.748 0 0 1 .504-.196h3.752a.68.68 0 0 1 .504.196c.15.13.224.299.224.504v18.2a.637.637 0 0 1-.224.504.68.68 0 0 1-.504.196h-3.752Zm9.078 0a.748.748 0 0 1-.504-.196.749.749 0 0 1-.196-.504V1.1c0-.205.066-.373.196-.504a.748.748 0 0 1 .504-.196h3.528a.68.68 0 0 1 .504.196.68.68 0 0 1 .196.504v6.216l5.18-6.384c.224-.355.588-.532 1.092-.532h4.032a.53.53 0 0 1 .42.196.537.537 0 0 1 .168.392c0 .13-.028.243-.084.336l-6.72 8.456 7.224 9.296c.075.075.112.187.112.336 0 .15-.056.29-.168.42a.57.57 0 0 1-.42.168h-4.172c-.448 0-.821-.187-1.12-.56l-5.544-6.916V19.3a.681.681 0 0 1-.196.504.68.68 0 0 1-.504.196h-3.528Zm18.567 0a.744.744 0 0 1-.504-.196.744.744 0 0 1-.196-.504V1.1a.68.68 0 0 1 .196-.504.744.744 0 0 1 .504-.196h3.696c.205 0 .373.065.504.196.13.13.196.299.196.504v14.672h8.484a.64.64 0 0 1 .504.224c.13.13.196.299.196.504v2.8a.749.749 0 0 1-.196.504.683.683 0 0 1-.504.196h-12.88Zm14.887 0a.636.636 0 0 1-.42-.168.635.635 0 0 1-.168-.42c0-.112.009-.196.028-.252l6.58-17.976c.056-.224.177-.41.364-.56.187-.15.429-.224.728-.224h4.144c.299 0 .541.075.728.224.187.15.308.336.364.56l6.552 17.976.056.252c0 .15-.065.29-.196.42a.57.57 0 0 1-.42.168h-3.444c-.448 0-.747-.196-.896-.588l-1.092-2.856h-7.476l-1.064 2.856c-.149.392-.457.588-.924.588h-3.444Zm11.788-7.476-2.604-7.392-2.604 7.392h5.208ZM246.168 20a.744.744 0 0 1-.504-.196.744.744 0 0 1-.196-.504V1.1a.68.68 0 0 1 .196-.504.744.744 0 0 1 .504-.196h7.616c2.445 0 4.349.56 5.712 1.68 1.381 1.101 2.072 2.67 2.072 4.704 0 1.307-.308 2.417-.924 3.332-.616.915-1.466 1.615-2.548 2.1l3.836 6.888a.697.697 0 0 1 .084.308c0 .15-.066.29-.196.42a.538.538 0 0 1-.392.168h-3.724c-.542 0-.924-.252-1.148-.756l-3.192-6.16h-2.856V19.3a.64.64 0 0 1-.224.504.683.683 0 0 1-.504.196h-3.612Zm7.56-10.892c.858 0 1.512-.205 1.96-.616.448-.43.672-1.017.672-1.764 0-.747-.224-1.335-.672-1.764-.43-.448-1.083-.672-1.96-.672h-3.22v4.816h3.22ZM264.743 20a.783.783 0 0 1-.532-.196.685.685 0 0 1-.196-.504v-1.988c0-.56.234-1.017.7-1.372l2.912-2.856c1.699-1.307 2.987-2.324 3.864-3.052.878-.728 1.54-1.39 1.988-1.988.448-.597.672-1.167.672-1.708 0-1.475-.728-2.212-2.184-2.212-.765 0-1.353.233-1.764.7-.41.448-.681 1.017-.812 1.708-.112.43-.429.644-.952.644h-3.5a.57.57 0 0 1-.42-.168.57.57 0 0 1-.168-.42 6.477 6.477 0 0 1 .98-3.276c.635-1.008 1.522-1.801 2.66-2.38 1.158-.597 2.483-.896 3.976-.896 1.568 0 2.912.252 4.032.756s1.97 1.213 2.548 2.128c.579.915.868 1.979.868 3.192 0 1.307-.41 2.501-1.232 3.584-.802 1.064-2.034 2.221-3.696 3.472l-2.576 2.604h7.196a.68.68 0 0 1 .504.196c.15.13.224.299.224.504V19.3a.637.637 0 0 1-.224.504.68.68 0 0 1-.504.196h-14.364Zm27.09 0a.748.748 0 0 1-.504-.196.749.749 0 0 1-.196-.504v-3.164h-8.708a.683.683 0 0 1-.504-.196.685.685 0 0 1-.196-.504v-2.66c0-.28.103-.57.308-.868L290.181.876c.262-.317.607-.476 1.036-.476h4.088a.68.68 0 0 1 .504.196.68.68 0 0 1 .196.504v10.864h2.464a.67.67 0 0 1 .532.224c.131.13.196.29.196.476v2.772a.681.681 0 0 1-.196.504.68.68 0 0 1-.504.196h-2.492V19.3a.744.744 0 0 1-.196.504.68.68 0 0 1-.504.196h-3.472Zm-.588-7.84V5.552l-4.704 6.608h4.704Z"/></svg>