<svg xmlns="http://www.w3.org/2000/svg" width="20" height="20" fill="none"><g clip-path="url(#a)"><path fill="#fff" d="M10 .313A9.686 9.686 0 0 0 .312 10 9.686 9.686 0 0 0 10 19.688 9.686 9.686 0 0 0 19.688 10 9.686 9.686 0 0 0 10 .312Zm4.758 6.636-1.59 7.493c-.117.531-.434.66-.875.41l-2.422-1.785-1.168 1.125c-.129.129-.238.238-.488.238l.172-2.465 4.488-4.055c.196-.172-.043-.27-.301-.098l-5.547 3.492-2.39-.746c-.52-.164-.532-.52.109-.77l9.34-3.601c.433-.156.812.106.671.762h.001Z"/></g><defs><clipPath id="a"><path fill="#fff" d="M0 0h20v20H0z"/></clipPath></defs></svg>