<svg xmlns="http://www.w3.org/2000/svg" width="32" height="33" fill="none"><g clip-path="url(#a)"><mask id="b" width="32" height="33" x="0" y="0" maskUnits="userSpaceOnUse" style="mask-type:alpha"><path fill="#fff" d="M.048.224h31.73v31.972H.048V.224Z"/></mask><g mask="url(#b)"><path fill="#295091" fill-rule="evenodd" d="M15.887.224C7.128.224 0 7.396 0 16.209c0 8.815 7.128 15.987 15.887 15.987 8.763 0 15.891-7.172 15.891-15.987 0-8.813-7.128-15.985-15.89-15.985h-.001Zm7.091 12.328c.006.157.01.317.01.478 0 4.86-3.678 10.466-10.406 10.466a10.28 10.28 0 0 1-5.607-1.653 7.306 7.306 0 0 0 5.415-1.522 3.664 3.664 0 0 1-3.415-2.557 3.593 3.593 0 0 0 1.65-.063 3.674 3.674 0 0 1-2.935-3.605c0-.016 0-.032.004-.048.49.277 1.056.44 1.656.46a3.68 3.68 0 0 1-1.628-3.063c0-.673.181-1.304.494-1.848a10.363 10.363 0 0 0 7.537 3.844 3.719 3.719 0 0 1-.094-.839c0-2.03 1.638-3.678 3.657-3.678a3.64 3.64 0 0 1 2.668 1.16 7.204 7.204 0 0 0 2.326-.893 3.69 3.69 0 0 1-1.61 2.037 7.213 7.213 0 0 0 2.1-.578 7.464 7.464 0 0 1-1.822 1.902Z" clip-rule="evenodd"/></g></g><defs><clipPath id="a"><path fill="#fff" d="M0 0h32v33H0z"/></clipPath></defs></svg>